/* XPM */
static char * p3_xpm[] = {
"16 16 21 1",
" 	c None",
".	c #C7AD84",
"+	c #C8AF85",
"@	c #F2ECD3",
"#	c #D5C29E",
"$	c #E0D2B2",
"%	c #D2BD97",
"&	c #C9B087",
"*	c #DBCBAA",
"=	c #CDB68F",
"-	c #ECE3C7",
";	c #EFE7CD",
">	c #E3D6B7",
",	c #CEB891",
"'	c #D9C8A5",
")	c #E9DFC3",
"!	c #D9C7A4",
"~	c #CDB68E",
"{	c #F4F0D8",
"]	c #000000",
"^	c #C6AC82",
"     {;--;{     ",
"   {)$*''*$){   ",
"  @>!%,~~,%!>@  ",
" {>#=&.^^.&=#>{ ",
" )!=+^^^^^^+=!) ",
"{$%&^^^^^^^^&%${",
";*,.^^^^^^^^.,*;",
"-'~^^^^^^^^^^~'-",
"-'~^^^^^^^^^^~'-",
";*,.^^^^^^^^.,*;",
"{$%&^^^^^^^^&%${",
" )!=+^^^^^^+=!) ",
" {>#=&.^^.&=#>{ ",
"  @>!%,~~,%!>@  ",
"   {)$*''*$){   ",
"     {;--;{     "};
