/* XPM */
static char * p4_xpm[] = {
"16 16 22 1",
" 	c None",
".	c #E8D3B3",
"+	c #BC7F6C",
"@	c #EFE1BF",
"#	c #CDA088",
"$	c #BD816D",
"%	c #DAB99D",
"&	c #ECDAB9",
"*	c #C38D77",
"=	c #E5CDAE",
"-	c #D2A98F",
";	c #BE8470",
">	c #C99881",
",	c #C5907A",
"'	c #D1A78E",
")	c #D5AE94",
"!	c #DDBFA2",
"~	c #C38C77",
"{	c #BB7E6A",
"]	c #F2E7C5",
"^	c #000000",
"/	c #BB7D6A",
"     ]&..&]     ",
"   ]=%)--)%=]   ",
"  @!'>,~~,>'!@  ",
" ]!#*;+{{+;*#!] ",
" ='*${////{$*'= ",
"]%>;{//////{;>%]",
"&),+////////+,)&",
".-~{////////{~-.",
".-~{////////{~-.",
"&),+////////+,)&",
"]%>;{//////{;>%]",
" ='*${////{$*'= ",
" ]!#*;+{{+;*#!] ",
"  @!'>,~~,>'!@  ",
"   ]=%)--)%=]   ",
"     ]&..&]     "};
